<?xml version="1.0" standalone="no"?>
<!DOCTYPE svg PUBLIC "-//W3C//DTD SVG 20010904//EN"
 "http://www.w3.org/TR/2001/REC-SVG-20010904/DTD/svg10.dtd">
<svg version="1.0" xmlns="http://www.w3.org/2000/svg"
 width="526.000000pt" height="156.000000pt" viewBox="0 0 526.000000 156.000000"
 preserveAspectRatio="xMidYMid meet">

<g transform="translate(0.000000,156.000000) scale(0.100000,-0.100000)"
fill="#000000" stroke="none">
<path d="M3741 1197 c-27 -44 -71 -144 -71 -160 1 -7 12 14 25 45 43 104 66
139 89 132 17 -4 18 -3 6 5 -22 16 -27 14 -49 -22z"/>
<path d="M4290 1219 c-12 -8 -11 -9 5 -5 17 5 26 -4 50 -48 16 -30 31 -53 33
-51 6 5 -58 115 -66 115 -4 0 -14 -5 -22 -11z"/>
<path d="M2442 938 l3 -283 2 278 3 277 45 0 45 0 0 -124 c0 -75 4 -127 10
-131 6 -4 25 3 43 14 18 11 28 21 22 21 -5 -1 -19 -7 -29 -15 -11 -8 -23 -15
-28 -15 -4 0 -8 59 -8 130 l0 130 -55 0 -55 0 2 -282z"/>
<path d="M2108 1203 c12 -2 30 -2 40 0 9 3 -1 5 -23 4 -22 0 -30 -2 -17 -4z"/>
<path d="M3812 1206 c3 -4 -7 -35 -23 -69 -16 -34 -31 -78 -34 -97 -4 -24 0
-18 13 20 10 30 28 74 40 97 17 32 19 44 9 49 -6 4 -9 4 -5 0z"/>
<path d="M4250 1206 c0 -2 14 -32 30 -67 17 -35 28 -53 24 -39 -4 14 -15 41
-25 61 -10 20 -15 39 -12 43 4 3 1 6 -5 6 -7 0 -12 -2 -12 -4z"/>
<path d="M2048 1193 c7 -3 16 -2 19 1 4 3 -2 6 -13 5 -11 0 -14 -3 -6 -6z"/>
<path d="M2181 1196 c2 -2 18 -6 34 -10 22 -5 26 -4 15 4 -14 9 -59 15 -49 6z"/>
<path d="M1968 1155 c-44 -33 -99 -120 -98 -154 1 -9 10 6 20 33 21 53 66 106
115 137 17 10 25 19 19 19 -6 0 -32 -16 -56 -35z"/>
<path d="M2295 1146 l30 -25 -35 -36 c-33 -34 -34 -35 -54 -16 -77 69 -180 50
-233 -44 -17 -30 -22 -54 -21 -100 l1 -60 6 65 c10 108 63 170 146 170 40 0
68 -12 102 -43 l23 -20 35 39 c19 21 34 42 35 46 0 4 -15 16 -32 28 l-33 22
30 -26z"/>
<path d="M1237 1113 l52 -4 3 -62 3 -62 38 -3 c33 -3 37 -6 37 -32 0 -25 -4
-29 -32 -33 -32 -4 -32 -4 5 -5 37 -2 37 -2 37 38 l0 40 -40 0 -40 0 0 65 0
65 -57 -2 -58 -2 52 -3z"/>
<path d="M4382 1095 c0 -5 6 -26 13 -45 7 -19 14 -28 14 -20 0 8 -6 29 -14 45
-7 17 -13 26 -13 20z"/>
<path d="M4312 1060 c0 -8 4 -26 8 -40 6 -20 8 -21 8 -5 0 11 -3 29 -8 40 -5
12 -8 14 -8 5z"/>
<path d="M3657 991 c-4 -18 -7 -43 -6 -55 1 -11 5 -1 10 24 5 25 7 49 6 55 -2
5 -7 -5 -10 -24z"/>
<path d="M4417 960 c3 -30 7 -57 9 -59 7 -8 2 64 -6 89 -6 16 -7 6 -3 -30z"/>
<path d="M4546 994 c-9 -8 -16 -20 -16 -26 0 -6 1 -9 3 -7 1 2 11 14 21 27 22
25 16 30 -8 6z"/>
<path d="M4635 996 c26 -19 26 -83 0 -103 -12 -9 -14 -14 -5 -11 47 14 44 128
-3 128 -6 0 -2 -6 8 -14z"/>
<path d="M838 993 c12 -2 30 -2 40 0 9 3 -1 5 -23 4 -22 0 -30 -2 -17 -4z"/>
<path d="M1165 990 l-30 -8 27 -1 c15 0 30 4 33 9 3 6 5 9 3 9 -2 -1 -16 -5
-33 -9z"/>
<path d="M1643 993 c9 -2 25 -2 35 0 9 3 1 5 -18 5 -19 0 -27 -2 -17 -5z"/>
<path d="M2643 993 c9 -2 25 -2 35 0 9 3 1 5 -18 5 -19 0 -27 -2 -17 -5z"/>
<path d="M3523 993 c9 -2 23 -2 30 0 6 3 -1 5 -18 5 -16 0 -22 -2 -12 -5z"/>
<path d="M3742 970 c0 -19 2 -27 5 -17 2 9 2 25 0 35 -3 9 -5 1 -5 -18z"/>
<path d="M4123 993 c9 -2 25 -2 35 0 9 3 1 5 -18 5 -19 0 -27 -2 -17 -5z"/>
<path d="M760 964 c-34 -29 -60 -73 -60 -101 1 -10 7 -1 14 20 17 45 32 65 71
89 17 10 25 18 18 18 -6 0 -25 -12 -43 -26z"/>
<path d="M939 969 c31 -19 36 -19 46 -6 7 9 32 17 61 20 l49 3 -57 2 c-46 2
-58 -1 -58 -13 0 -19 -9 -19 -34 0 -11 8 -25 15 -30 15 -6 0 4 -10 23 -21z"/>
<path d="M1442 823 l2 -168 3 163 3 162 42 0 c27 0 45 -6 53 -17 11 -15 15
-15 46 5 19 12 30 22 24 22 -5 -1 -19 -7 -29 -15 -25 -19 -36 -19 -36 0 0 12
-13 15 -55 15 l-55 0 2 -167z"/>
<path d="M1726 976 c56 -25 64 -47 66 -191 l2 -130 3 125 c3 79 -1 135 -8 153
-11 27 -55 57 -81 57 -7 -1 1 -7 18 -14z"/>
<path d="M2726 976 c56 -25 64 -47 66 -191 l2 -130 3 125 c3 79 -1 135 -8 153
-11 27 -55 57 -81 57 -7 -1 1 -7 18 -14z"/>
<path d="M2899 981 c60 -6 64 -8 82 -41 23 -44 25 -33 2 15 l-17 35 -65 -2
-66 -1 64 -6z"/>
<path d="M3120 943 c-11 -25 -18 -48 -16 -50 2 -2 12 16 22 41 l19 46 53 0
c28 0 52 -3 52 -6 0 -3 -28 -58 -62 -122 -33 -64 -56 -112 -51 -107 6 6 38 63
72 128 l62 117 -65 0 -65 0 -21 -47z"/>
<path d="M3312 823 l2 -168 3 163 3 162 45 0 c33 0 45 -4 48 -17 4 -14 5 -12
6 5 1 20 -3 22 -54 22 l-55 0 2 -167z"/>
<path d="M3458 968 c-13 -13 -17 -18 -8 -12 8 6 24 16 35 22 11 6 15 12 8 12
-7 0 -22 -10 -35 -22z"/>
<path d="M3570 986 c0 -2 7 -7 16 -10 8 -3 12 -2 9 4 -6 10 -25 14 -25 6z"/>
<path d="M3922 823 l2 -168 3 163 3 162 45 0 c33 0 45 -4 48 -17 4 -14 5 -12
6 5 1 20 -3 22 -54 22 l-55 0 2 -167z"/>
<path d="M4054 958 l-29 -33 35 30 c19 17 37 31 39 33 2 1 0 2 -5 2 -6 0 -23
-15 -40 -32z"/>
<path d="M4186 976 c3 -8 -2 -28 -10 -44 -12 -23 -21 -29 -38 -26 -22 4 -22 4
1 -6 13 -6 25 -9 26 -8 1 2 10 17 19 35 18 36 21 63 6 63 -5 0 -7 -6 -4 -14z"/>
<path d="M4333 955 c0 -22 2 -30 4 -17 2 12 2 30 0 40 -3 9 -5 -1 -4 -23z"/>
<path d="M1863 930 c0 -30 2 -43 4 -27 2 15 2 39 0 55 -2 15 -4 2 -4 -28z"/>
<path d="M2916 843 c72 -136 104 -192 104 -182 0 10 -161 309 -167 309 -2 0
26 -57 63 -127z"/>
<path d="M3567 925 c-9 -19 -15 -35 -12 -35 7 0 37 61 33 66 -3 2 -12 -12 -21
-31z"/>
<path d="M2133 910 c0 -25 2 -35 4 -22 2 12 2 32 0 45 -2 12 -4 2 -4 -23z"/>
<path d="M4526 930 c8 -30 23 -50 38 -50 6 0 5 4 -3 9 -8 5 -20 22 -28 38 -11
25 -12 25 -7 3z"/>
<path d="M1158 913 c6 -2 18 -2 25 0 6 3 1 5 -13 5 -14 0 -19 -2 -12 -5z"/>
<path d="M1566 889 c-25 -29 -26 -36 -24 -132 l2 -102 5 108 c6 104 7 110 34
133 15 13 24 24 18 24 -5 0 -21 -14 -35 -31z"/>
<path d="M1664 899 c25 -20 26 -25 28 -132 l2 -112 3 109 c3 101 2 111 -18
132 -13 13 -27 24 -32 24 -5 0 2 -9 17 -21z"/>
<path d="M2566 889 c-25 -29 -26 -36 -24 -132 l2 -102 5 108 c6 104 7 110 34
133 15 13 24 24 18 24 -5 0 -21 -14 -35 -31z"/>
<path d="M2664 899 c25 -20 26 -25 28 -132 l2 -112 3 109 c3 101 2 111 -18
132 -13 13 -27 24 -32 24 -5 0 2 -9 17 -21z"/>
<path d="M3733 845 c0 -44 2 -61 4 -37 2 23 2 59 0 80 -2 20 -4 1 -4 -43z"/>
<path d="M826 879 c-33 -39 -33 -80 0 -116 l26 -28 -21 29 c-30 41 -27 82 8
117 16 16 26 29 21 29 -4 0 -20 -14 -34 -31z"/>
<path d="M951 881 c56 -56 29 -128 -52 -141 l-44 -7 38 -2 c49 -1 97 42 97 87
0 29 -41 92 -60 92 -5 0 5 -13 21 -29z"/>
<path d="M3436 879 c-24 -29 -26 -36 -24 -127 l2 -97 5 103 c6 98 8 105 34
128 15 13 24 24 18 24 -5 0 -21 -14 -35 -31z"/>
<path d="M1293 840 c0 -36 2 -50 4 -32 2 17 2 47 0 65 -2 17 -4 3 -4 -33z"/>
<path d="M3000 897 c0 -12 39 -85 50 -92 10 -6 50 51 50 70 -1 6 -10 -7 -21
-27 -11 -21 -22 -38 -24 -38 -3 0 -16 21 -29 48 -14 26 -25 43 -26 39z"/>
<path d="M3643 845 c0 -33 2 -45 4 -27 2 18 2 45 0 60 -2 15 -4 0 -4 -33z"/>
<path d="M4036 878 c-12 -17 -16 -46 -14 -123 l2 -100 5 106 c4 68 11 112 20
123 7 9 11 16 8 16 -3 0 -13 -10 -21 -22z"/>
<path d="M4343 850 c0 -30 2 -43 4 -27 2 15 2 39 0 55 -2 15 -4 2 -4 -28z"/>
<path d="M4432 850 c0 -19 2 -27 5 -17 2 9 2 25 0 35 -3 9 -5 1 -5 -18z"/>
<path d="M4588 873 c7 -3 16 -2 19 1 4 3 -2 6 -13 5 -11 0 -14 -3 -6 -6z"/>
<path d="M1871 857 c-3 -76 129 -209 205 -206 10 0 -3 7 -30 15 -65 21 -139
95 -160 160 -8 27 -15 41 -15 31z"/>
<path d="M2254 844 c-2 -29 -19 -51 -59 -76 -16 -10 -25 -18 -18 -18 34 0 105
92 86 111 -4 4 -9 -3 -9 -17z"/>
<path d="M1990 850 c0 -16 84 -100 100 -100 7 0 -2 10 -21 23 -18 12 -44 38
-56 56 -13 19 -23 28 -23 21z"/>
<path d="M691 824 c0 -11 3 -14 6 -6 3 7 2 16 -1 19 -3 4 -6 -2 -5 -13z"/>
<path d="M2361 824 c0 -11 3 -14 6 -6 3 7 2 16 -1 19 -3 4 -6 -2 -5 -13z"/>
<path d="M2328 755 c-17 -29 -43 -52 -75 -69 -26 -14 -44 -25 -40 -26 32 -1
111 59 134 103 23 45 11 39 -19 -8z"/>
<path d="M701 774 c0 -11 3 -14 6 -6 3 7 2 16 -1 19 -3 4 -6 -2 -5 -13z"/>
<path d="M4422 760 c0 -19 2 -27 5 -17 2 9 2 25 0 35 -3 9 -5 1 -5 -18z"/>
<path d="M4552 773 c-11 -10 -23 -29 -26 -43 -5 -23 -4 -22 7 3 24 51 71 63
107 27 11 -11 20 -16 20 -11 0 15 -42 41 -66 41 -12 0 -31 -8 -42 -17z"/>
<path d="M3651 754 c1 -16 5 -40 9 -54 6 -17 7 -9 3 25 -6 56 -14 74 -12 29z"/>
<path d="M4333 745 c0 -22 2 -30 4 -17 2 12 2 30 0 40 -3 9 -5 -1 -4 -23z"/>
<path d="M1300 761 c0 -6 4 -13 10 -16 6 -3 7 1 4 9 -7 18 -14 21 -14 7z"/>
<path d="M1201 742 c-2 -42 36 -92 69 -91 9 0 7 3 -5 9 -29 11 -46 34 -55 73
-6 24 -8 27 -9 9z"/>
<path d="M3742 730 c0 -19 2 -27 5 -17 2 9 2 25 0 35 -3 9 -5 1 -5 -18z"/>
<path d="M710 744 c0 -31 76 -94 112 -94 7 0 -6 9 -29 20 -25 11 -51 33 -63
52 -11 18 -20 28 -20 22z"/>
<path d="M1340 739 c-13 -9 -13 -10 0 -6 10 2 20 -7 28 -27 l12 -31 -6 30 c-7
38 -16 47 -34 34z"/>
<path d="M2118 743 c6 -2 18 -2 25 0 6 3 1 5 -13 5 -14 0 -19 -2 -12 -5z"/>
<path d="M3105 699 c-9 -17 -15 -33 -13 -35 3 -2 12 12 21 31 21 43 13 47 -8
4z"/>
<path d="M4661 714 c0 -11 3 -14 6 -6 3 7 2 16 -1 19 -3 4 -6 -2 -5 -13z"/>
<path d="M4406 689 c-8 -42 0 -50 9 -9 4 17 5 34 2 36 -2 3 -7 -10 -11 -27z"/>
<path d="M4322 680 c0 -14 2 -19 5 -12 2 6 2 18 0 25 -3 6 -5 1 -5 -13z"/>
<path d="M4530 690 c0 -5 11 -17 25 -28 31 -25 31 -30 1 -75 -21 -31 -23 -37
-10 -48 11 -9 19 -8 36 7 32 28 78 105 78 128 -1 14 -6 8 -14 -16 -21 -58 -96
-145 -96 -110 0 4 10 26 22 49 l22 41 -32 30 c-18 17 -32 26 -32 22z"/>
<path d="M3751 679 c-1 -18 30 -112 35 -107 2 2 -5 31 -16 63 -10 33 -19 53
-19 44z"/>
<path d="M945 670 c-3 -6 1 -7 9 -4 18 7 21 14 7 14 -6 0 -13 -4 -16 -10z"/>
<path d="M982 650 c0 -14 2 -19 5 -12 2 6 2 18 0 25 -3 6 -5 1 -5 -13z"/>
<path d="M1355 660 c-13 -6 -15 -9 -5 -9 8 0 22 4 30 9 18 12 2 12 -25 0z"/>
<path d="M3670 659 c0 -20 80 -182 86 -176 3 2 -5 21 -17 41 -12 21 -32 63
-45 94 -13 31 -24 50 -24 41z"/>
<path d="M908 653 c7 -3 16 -2 19 1 4 3 -2 6 -13 5 -11 0 -14 -3 -6 -6z"/>
<path d="M2168 653 c6 -2 18 -2 25 0 6 3 1 5 -13 5 -14 0 -19 -2 -12 -5z"/>
<path d="M4292 592 c-13 -31 -25 -62 -28 -69 -3 -6 9 -19 27 -28 26 -14 33
-15 41 -3 19 28 56 104 62 128 4 14 -7 -4 -24 -39 -41 -87 -47 -93 -74 -79
-11 6 -22 12 -24 13 -1 1 9 27 24 59 14 31 24 60 22 65 -2 5 -13 -16 -26 -47z"/>
<path d="M970 612 c0 -7 -15 -21 -32 -32 -18 -11 -28 -20 -21 -20 18 0 69 47
61 56 -5 4 -8 2 -8 -4z"/>
<path d="M1072 600 c0 -14 2 -19 5 -12 2 6 2 18 0 25 -3 6 -5 1 -5 -13z"/>
<path d="M750 585 c-29 -17 -19 -20 12 -4 15 8 27 8 46 -1 22 -10 24 -9 12 4
-15 20 -37 20 -70 1z"/>
<path d="M710 559 c0 -26 68 -79 101 -79 7 0 -7 10 -31 23 -25 12 -51 33 -57
47 -8 15 -13 19 -13 9z"/>
<path d="M1046 543 c-10 -14 -37 -34 -60 -44 -22 -10 -35 -19 -27 -19 21 0 86
40 100 62 18 29 9 30 -13 1z"/>
<path d="M3790 551 c0 -6 4 -13 10 -16 6 -3 7 1 4 9 -7 18 -14 21 -14 7z"/>
<path d="M3790 505 c-14 -8 -20 -14 -14 -15 5 0 19 7 30 15 24 18 16 19 -16 0z"/>
<path d="M863 473 c15 -2 39 -2 55 0 15 2 2 4 -28 4 -30 0 -43 -2 -27 -4z"/>
</g>
</svg>
